<svg xmlns="http://www.w3.org/2000/svg" viewBox="0 0 32 32" width="320" height="320" shape-rendering="crispEdges">
  <!-- Pixel art baby T-Rex dinosaur -->
  <!-- Each rect is 1 unit = 1 pixel in 32x32 grid -->
  
  <!-- Head -->
  <rect x="18" y="4" width="8" height="1" fill="#3a8c3a"/>
  <rect x="17" y="5" width="10" height="1" fill="#3a8c3a"/>
  <rect x="17" y="6" width="11" height="1" fill="#4aa64a"/>
  <rect x="17" y="7" width="11" height="1" fill="#4aa64a"/>
  <rect x="16" y="8" width="12" height="1" fill="#4aa64a"/>
  <rect x="16" y="9" width="12" height="1" fill="#4aa64a"/>
  <rect x="17" y="10" width="11" height="1" fill="#3a8c3a"/>
  <rect x="18" y="11" width="9" height="1" fill="#3a8c3a"/>
  
  <!-- Eye (white + pupil) -->
  <rect x="23" y="6" width="3" height="3" fill="#fff"/>
  <rect x="24" y="7" width="2" height="2" fill="#1a1a1a"/>
  <rect x="25" y="7" width="1" height="1" fill="#fff"/>
  
  <!-- Nostril -->
  <rect x="26" y="9" width="1" height="1" fill="#2d6e2d"/>
  
  <!-- Mouth line -->
  <rect x="22" y="10" width="6" height="1" fill="#2d6e2d"/>
  
  <!-- Jaw/snout tip -->
  <rect x="25" y="11" width="3" height="1" fill="#4aa64a"/>
  
  <!-- Neck -->
  <rect x="17" y="11" width="5" height="1" fill="#4aa64a"/>
  <rect x="16" y="12" width="5" height="1" fill="#4aa64a"/>
  <rect x="15" y="13" width="5" height="1" fill="#4aa64a"/>
  
  <!-- Neck band (tan/brown collar marking) -->
  <rect x="18" y="11" width="4" height="1" fill="#c4a050"/>
  <rect x="17" y="12" width="4" height="1" fill="#c4a050"/>
  
  <!-- Body (green) -->
  <rect x="8" y="14" width="12" height="1" fill="#4aa64a"/>
  <rect x="7" y="15" width="14" height="1" fill="#4aa64a"/>
  <rect x="6" y="16" width="15" height="1" fill="#4aa64a"/>
  <rect x="5" y="17" width="16" height="1" fill="#4aa64a"/>
  <rect x="5" y="18" width="16" height="1" fill="#3a8c3a"/>
  <rect x="6" y="19" width="14" height="1" fill="#3a8c3a"/>
  <rect x="7" y="20" width="12" height="1" fill="#3a8c3a"/>
  
  <!-- Belly (tan) -->
  <rect x="13" y="16" width="5" height="1" fill="#d4b870"/>
  <rect x="12" y="17" width="6" height="1" fill="#d4b870"/>
  <rect x="12" y="18" width="6" height="1" fill="#c4a050"/>
  <rect x="13" y="19" width="4" height="1" fill="#c4a050"/>
  
  <!-- Back spines -->
  <rect x="10" y="13" width="2" height="1" fill="#2d6e2d"/>
  <rect x="12" y="12" width="2" height="1" fill="#2d6e2d"/>
  <rect x="8" y="13" width="1" height="1" fill="#2d6e2d"/>
  
  <!-- Tail -->
  <rect x="4" y="15" width="3" height="1" fill="#4aa64a"/>
  <rect x="2" y="14" width="3" height="1" fill="#4aa64a"/>
  <rect x="1" y="13" width="2" height="1" fill="#3a8c3a"/>
  <rect x="0" y="12" width="2" height="1" fill="#3a8c3a"/>
  <rect x="0" y="11" width="1" height="1" fill="#2d6e2d"/>
  
  <!-- Left leg -->
  <rect x="9" y="21" width="3" height="2" fill="#3a8c3a"/>
  <rect x="9" y="23" width="3" height="1" fill="#2d6e2d"/>
  <!-- Left foot (white claws) -->
  <rect x="8" y="24" width="1" height="1" fill="#fff"/>
  <rect x="10" y="24" width="1" height="1" fill="#fff"/>
  <rect x="12" y="24" width="1" height="1" fill="#fff"/>
  
  <!-- Right leg -->
  <rect x="16" y="21" width="3" height="2" fill="#3a8c3a"/>
  <rect x="16" y="23" width="3" height="1" fill="#2d6e2d"/>
  <!-- Right foot (white claws) -->
  <rect x="15" y="24" width="1" height="1" fill="#fff"/>
  <rect x="17" y="24" width="1" height="1" fill="#fff"/>
  <rect x="19" y="24" width="1" height="1" fill="#fff"/>
  
  <!-- Arms (small T-Rex arms) -->
  <rect x="18" y="15" width="2" height="1" fill="#3a8c3a"/>
  <rect x="19" y="16" width="2" height="1" fill="#3a8c3a"/>
  <rect x="20" y="17" width="1" height="1" fill="#2d6e2d"/>
</svg>
