<svg xmlns="http://www.w3.org/2000/svg" viewBox="0 0 64 64" width="400" height="400" shape-rendering="crispEdges">
  <!-- Pixel art baby T-Rex in Violet palette from design system -->
  <!-- Grid: 64x64, each pixel = 1 unit -->
  <!-- Violet-500: #8A5BE0, 400: #9878EA, 300: #B8A6F1, 600: #7240CC, 700: #5C2FB2, 200: #D4C8F7 -->
  <!-- Outline: #321669 (violet-900) -->
  <!-- Belly: #E8E1FB (violet-100), #D4C8F7 (violet-200) -->

  <!-- === TAIL === -->
  <!-- Dark outline -->
  <rect x="4" y="28" width="1" height="1" fill="#321669"/>
  <rect x="3" y="27" width="1" height="1" fill="#321669"/>
  <rect x="2" y="26" width="1" height="1" fill="#321669"/>
  <rect x="2" y="25" width="1" height="1" fill="#321669"/>
  <rect x="3" y="24" width="1" height="1" fill="#321669"/>
  <rect x="4" y="23" width="1" height="1" fill="#321669"/>
  <rect x="5" y="22" width="1" height="1" fill="#321669"/>
  <rect x="6" y="22" width="1" height="1" fill="#321669"/>
  <rect x="7" y="22" width="1" height="1" fill="#321669"/>
  <rect x="8" y="23" width="1" height="1" fill="#321669"/>
  <!-- Tail fill -->
  <rect x="3" y="26" width="2" height="2" fill="#7240CC"/>
  <rect x="4" y="24" width="2" height="2" fill="#8A5BE0"/>
  <rect x="5" y="23" width="3" height="2" fill="#9878EA"/>
  <rect x="7" y="24" width="2" height="2" fill="#8A5BE0"/>

  <!-- === BODY === -->
  <!-- Body outline top -->
  <rect x="9" y="22" width="1" height="1" fill="#321669"/>
  <rect x="10" y="21" width="1" height="1" fill="#321669"/>
  <rect x="11" y="20" width="1" height="1" fill="#321669"/>
  <rect x="12" y="19" width="1" height="1" fill="#321669"/>
  <rect x="13" y="19" width="1" height="1" fill="#321669"/>
  <rect x="14" y="18" width="1" height="1" fill="#321669"/>
  <rect x="15" y="18" width="1" height="1" fill="#321669"/>
  <rect x="16" y="18" width="1" height="1" fill="#321669"/>
  <rect x="17" y="18" width="1" height="1" fill="#321669"/>
  <rect x="18" y="18" width="1" height="1" fill="#321669"/>
  <rect x="19" y="18" width="1" height="1" fill="#321669"/>
  <rect x="20" y="19" width="1" height="1" fill="#321669"/>
  <rect x="21" y="19" width="1" height="1" fill="#321669"/>
  <rect x="22" y="20" width="1" height="1" fill="#321669"/>
  <!-- Body outline bottom -->
  <rect x="8" y="35" width="1" height="1" fill="#321669"/>
  <rect x="9" y="36" width="1" height="1" fill="#321669"/>
  <rect x="22" y="36" width="1" height="1" fill="#321669"/>
  <rect x="23" y="35" width="1" height="1" fill="#321669"/>
  <!-- Body outline sides -->
  <rect x="7" y="26" width="1" height="1" fill="#321669"/>
  <rect x="7" y="27" width="1" height="1" fill="#321669"/>
  <rect x="7" y="28" width="1" height="1" fill="#321669"/>
  <rect x="7" y="29" width="1" height="1" fill="#321669"/>
  <rect x="7" y="30" width="1" height="1" fill="#321669"/>
  <rect x="7" y="31" width="1" height="1" fill="#321669"/>
  <rect x="7" y="32" width="1" height="1" fill="#321669"/>
  <rect x="7" y="33" width="1" height="1" fill="#321669"/>
  <rect x="8" y="34" width="1" height="1" fill="#321669"/>

  <!-- Body fill - main purple -->
  <rect x="8" y="23" width="14" height="12" fill="#8A5BE0"/>
  <rect x="9" y="22" width="13" height="1" fill="#8A5BE0"/>
  <rect x="10" y="21" width="12" height="1" fill="#9878EA"/>
  <rect x="11" y="20" width="11" height="1" fill="#9878EA"/>
  <rect x="12" y="19" width="9" height="1" fill="#9878EA"/>
  <rect x="14" y="18" width="6" height="1" fill="#B8A6F1"/>
  <!-- Body highlight -->
  <rect x="10" y="23" width="6" height="2" fill="#9878EA"/>
  
  <!-- Belly -->
  <rect x="13" y="28" width="7" height="5" fill="#E8E1FB"/>
  <rect x="14" y="27" width="5" height="1" fill="#D4C8F7"/>
  <rect x="14" y="33" width="5" height="1" fill="#D4C8F7"/>
  <rect x="12" y="29" width="1" height="3" fill="#D4C8F7"/>
  <rect x="20" y="29" width="1" height="3" fill="#D4C8F7"/>

  <!-- === BACK SPINES === -->
  <rect x="11" y="19" width="2" height="1" fill="#5C2FB2"/>
  <rect x="14" y="17" width="2" height="1" fill="#5C2FB2"/>
  <rect x="17" y="17" width="2" height="1" fill="#5C2FB2"/>
  <rect x="20" y="18" width="1" height="1" fill="#5C2FB2"/>

  <!-- === NECK === -->
  <rect x="22" y="20" width="3" height="1" fill="#321669"/>
  <rect x="23" y="19" width="2" height="1" fill="#321669"/>
  <rect x="24" y="18" width="2" height="1" fill="#321669"/>
  <rect x="25" y="17" width="2" height="1" fill="#321669"/>
  <rect x="23" y="21" width="1" height="4" fill="#321669"/>
  <!-- Neck fill -->
  <rect x="22" y="21" width="2" height="4" fill="#8A5BE0"/>
  <rect x="23" y="19" width="2" height="2" fill="#9878EA"/>
  <rect x="24" y="18" width="2" height="1" fill="#9878EA"/>
  <rect x="25" y="17" width="2" height="1" fill="#9878EA"/>
  
  <!-- Neck band / collar marking -->
  <rect x="22" y="22" width="2" height="2" fill="#D4C8F7"/>

  <!-- === HEAD === -->
  <!-- Head outline -->
  <rect x="26" y="7" width="1" height="1" fill="#321669"/>
  <rect x="27" y="6" width="1" height="1" fill="#321669"/>
  <rect x="28" y="5" width="1" height="1" fill="#321669"/>
  <rect x="29" y="4" width="5" height="1" fill="#321669"/>
  <rect x="34" y="5" width="1" height="1" fill="#321669"/>
  <rect x="35" y="5" width="1" height="1" fill="#321669"/>
  <rect x="36" y="6" width="1" height="1" fill="#321669"/>
  <rect x="37" y="6" width="1" height="1" fill="#321669"/>
  <rect x="38" y="7" width="1" height="1" fill="#321669"/>
  <rect x="39" y="7" width="1" height="1" fill="#321669"/>
  <rect x="40" y="8" width="1" height="1" fill="#321669"/>
  <rect x="40" y="9" width="1" height="1" fill="#321669"/>
  <rect x="40" y="10" width="1" height="1" fill="#321669"/>
  <rect x="40" y="11" width="1" height="1" fill="#321669"/>
  <rect x="39" y="12" width="1" height="1" fill="#321669"/>
  <rect x="38" y="13" width="1" height="1" fill="#321669"/>
  <rect x="37" y="14" width="1" height="1" fill="#321669"/>
  <rect x="36" y="14" width="1" height="1" fill="#321669"/>
  <rect x="35" y="15" width="1" height="1" fill="#321669"/>
  <rect x="34" y="15" width="1" height="1" fill="#321669"/>
  <rect x="33" y="15" width="1" height="1" fill="#321669"/>
  <rect x="32" y="16" width="1" height="1" fill="#321669"/>
  <rect x="31" y="16" width="1" height="1" fill="#321669"/>
  <rect x="30" y="16" width="1" height="1" fill="#321669"/>
  <rect x="29" y="16" width="1" height="1" fill="#321669"/>
  <rect x="28" y="16" width="1" height="1" fill="#321669"/>
  <rect x="27" y="15" width="1" height="1" fill="#321669"/>
  <rect x="26" y="14" width="1" height="1" fill="#321669"/>
  <rect x="25" y="13" width="1" height="1" fill="#321669"/>
  <rect x="25" y="12" width="1" height="1" fill="#321669"/>
  <rect x="25" y="11" width="1" height="1" fill="#321669"/>
  <rect x="25" y="10" width="1" height="1" fill="#321669"/>
  <rect x="25" y="9" width="1" height="1" fill="#321669"/>
  <rect x="25" y="8" width="1" height="1" fill="#321669"/>
  <rect x="26" y="7" width="1" height="1" fill="#321669"/>
  
  <!-- Head fill -->
  <rect x="27" y="7" width="12" height="7" fill="#8A5BE0"/>
  <rect x="28" y="6" width="8" height="1" fill="#9878EA"/>
  <rect x="29" y="5" width="6" height="1" fill="#9878EA"/>
  <rect x="26" y="8" width="1" height="6" fill="#7240CC"/>
  <rect x="27" y="14" width="7" height="1" fill="#7240CC"/>
  <rect x="34" y="14" width="3" height="1" fill="#7240CC"/>
  <rect x="28" y="15" width="4" height="1" fill="#8A5BE0"/>
  <rect x="38" y="7" width="2" height="6" fill="#8A5BE0"/>
  <rect x="36" y="6" width="2" height="1" fill="#8A5BE0"/>
  <!-- Head highlight -->
  <rect x="29" y="7" width="4" height="3" fill="#9878EA"/>
  <rect x="30" y="6" width="3" height="1" fill="#B8A6F1"/>

  <!-- === EYE === -->
  <!-- White -->
  <rect x="33" y="7" width="4" height="4" fill="#FFFFFF"/>
  <rect x="34" y="6" width="2" height="1" fill="#FFFFFF"/>
  <rect x="34" y="11" width="2" height="1" fill="#FFFFFF"/>
  <!-- Pupil (dark) -->
  <rect x="35" y="8" width="2" height="3" fill="#0F172A"/>
  <!-- Highlight -->
  <rect x="34" y="7" width="1" height="1" fill="#FFFFFF"/>
  <rect x="36" y="10" width="1" height="1" fill="#FFFFFF"/>

  <!-- === NOSTRIL === -->
  <rect x="38" y="10" width="1" height="1" fill="#321669"/>

  <!-- === MOUTH LINE === -->
  <rect x="33" y="13" width="5" height="1" fill="#321669"/>
  <!-- Smile -->
  <rect x="35" y="14" width="2" height="1" fill="#4A2390"/>

  <!-- === CHEEK BLUSH === -->
  <rect x="37" y="11" width="2" height="1" fill="#F06A86" opacity="0.4"/>
  <rect x="37" y="12" width="2" height="1" fill="#F06A86" opacity="0.3"/>

  <!-- === ARMS (tiny T-Rex arms) === -->
  <rect x="22" y="25" width="1" height="1" fill="#321669"/>
  <rect x="23" y="25" width="1" height="3" fill="#7240CC"/>
  <rect x="24" y="27" width="1" height="1" fill="#321669"/>
  <rect x="24" y="28" width="1" height="1" fill="#7240CC"/>
  <rect x="25" y="28" width="1" height="1" fill="#321669"/>
  
  <!-- === BACK LEGS === -->
  <!-- Left leg -->
  <rect x="9" y="35" width="1" height="1" fill="#321669"/>
  <rect x="10" y="35" width="3" height="1" fill="#7240CC"/>
  <rect x="9" y="36" width="1" height="5" fill="#321669"/>
  <rect x="13" y="35" width="1" height="1" fill="#321669"/>
  <rect x="13" y="36" width="1" height="5" fill="#321669"/>
  <rect x="10" y="36" width="3" height="5" fill="#7240CC"/>
  <rect x="10" y="41" width="3" height="1" fill="#5C2FB2"/>
  <!-- Left foot -->
  <rect x="8" y="42" width="1" height="1" fill="#321669"/>
  <rect x="9" y="42" width="1" height="1" fill="#E8E1FB"/>
  <rect x="10" y="42" width="1" height="1" fill="#321669"/>
  <rect x="11" y="42" width="1" height="1" fill="#E8E1FB"/>
  <rect x="12" y="42" width="1" height="1" fill="#321669"/>
  <rect x="13" y="42" width="1" height="1" fill="#E8E1FB"/>
  <rect x="14" y="42" width="1" height="1" fill="#321669"/>
  
  <!-- Right leg -->
  <rect x="18" y="35" width="4" height="1" fill="#8A5BE0"/>
  <rect x="17" y="36" width="1" height="5" fill="#321669"/>
  <rect x="18" y="36" width="3" height="5" fill="#8A5BE0"/>
  <rect x="21" y="36" width="1" height="5" fill="#321669"/>
  <rect x="18" y="41" width="3" height="1" fill="#7240CC"/>
  <!-- Right foot -->
  <rect x="16" y="42" width="1" height="1" fill="#321669"/>
  <rect x="17" y="42" width="1" height="1" fill="#E8E1FB"/>
  <rect x="18" y="42" width="1" height="1" fill="#321669"/>
  <rect x="19" y="42" width="1" height="1" fill="#E8E1FB"/>
  <rect x="20" y="42" width="1" height="1" fill="#321669"/>
  <rect x="21" y="42" width="1" height="1" fill="#E8E1FB"/>
  <rect x="22" y="42" width="1" height="1" fill="#321669"/>
</svg>
